<?xml version="1.0" encoding="utf-8"?>
<!-- Generator: Adobe Illustrator 24.3.0, SVG Export Plug-In . SVG Version: 6.00 Build 0)  -->
<svg version="1.1" id="Layer_1" xmlns="http://www.w3.org/2000/svg" xmlns:xlink="http://www.w3.org/1999/xlink" x="0px" y="0px"
	 viewBox="0 0 25.2 25.2" style="enable-background:new 0 0 25.2 25.2;" xml:space="preserve">
<style type="text/css">
	.st0{fill:#9FAEA8;}
</style>
<g id="Layer_3">
	<path class="st0" d="M12.6,0C5.6,0,0,5.6,0,12.6s5.6,12.6,12.6,12.6s12.6-5.6,12.6-12.6l0,0C25.2,5.6,19.6,0,12.6,0z M17,20.3
		c-1.1,0.2-2.2-0.6-2.3-1.7c0-0.2,0-0.3,0-0.5v-2.6h-1.6v-1.4h1.6v-1.5l0,0V9.3c0-1-0.4-1.5-1.2-1.5s-1.4,0.5-1.4,1.6v3.1h-1.8V9.3
		c0-1-0.4-1.5-1.2-1.5S7.8,8.3,7.8,9.5v3.1H5.9V6.3h1.7V7c0.5-0.6,1.2-0.9,2-0.8c0.8,0,1.6,0.3,2.1,1c0.6-0.7,1.4-1,2.2-1
		c1.5,0,2.6,0.9,2.6,2.8v3.6l0,0v1.5H18v1.4h-1.6V18c-0.1,0.4,0.2,0.8,0.6,0.8l0,0c0.1,0,0.1,0,0.2,0c0.3,0,0.5-0.1,0.7-0.2l0.5,1.3
		C18.1,20.2,17.5,20.3,17,20.3z"/>
</g>
</svg>
